<?xml version="1.0" encoding="utf-8"?>
<!-- Generator: Adobe Illustrator 25.2.1, SVG Export Plug-In . SVG Version: 6.00 Build 0)  -->
<svg version="1.1" id="Layer_1" xmlns="http://www.w3.org/2000/svg" xmlns:xlink="http://www.w3.org/1999/xlink" x="0px" y="0px"
	 viewBox="0 0 1920 474.2" style="enable-background:new 0 0 1920 474.2;" xml:space="preserve">
<style type="text/css">
	.st0{fill:url(#SVGID_1_);}
</style>
<g>
	<g>
		<path d="M484.5,176.1h31.7v94.4h51.4v27h-83.1V176.1z M571.5,176.1h104.1v26.2h-36.4v95.3h-31.7v-95.3h-36V176.1z M746.2,175.2
			c37.6,0,65.6,26.3,65.6,61.5c0,35.5-28.1,62.2-65.6,62.2s-65.6-26.7-65.6-62.2C680.6,201.3,708.6,175.2,746.2,175.2z M746.6,202.2
			c-18.2,0-33.4,14.9-33.4,34.6s15.4,35,33.4,35c18.2,0,32.7-15.2,32.7-35S764.8,202.2,746.6,202.2z M879.6,176.1h27.9l55.1,73.1
			v-73.1H992v121.4h-27.7l-55.1-72.7v72.7h-29.6V176.1z M1015.7,176.1h95.8v25.3h-64.1V224h57.8v25.1l-57.8,0.2v22.9h65.8v25.3
			h-97.5V176.1z M1122.1,176.1h104.1v26.2h-36.4v95.3h-31.7v-95.3h-36V176.1z M1226.8,176.1h34.1l23,87.8l22.9-87.8h31l23,87.8
			l22.9-87.8h32.6l-40,121.4h-32.7l-21.8-81.9l-22.5,81.9h-32.6L1226.8,176.1z M1484.7,175.2c37.6,0,65.6,26.3,65.6,61.5
			c0,35.5-28.1,62.2-65.6,62.2c-37.6,0-65.6-26.7-65.6-62.2C1419.1,201.3,1447.1,175.2,1484.7,175.2z M1485.1,202.2
			c-18.2,0-33.4,14.9-33.4,34.6s15.4,35,33.4,35c18.2,0,32.7-15.2,32.7-35S1503.2,202.2,1485.1,202.2z M1674.9,297.5H1639
			l-17.7-33.6h-23.6v33.6h-31.7V176.1h54.6c32.2,0,50.6,15.6,50.6,42.6c0,18.4-7.6,31.9-21.6,39.1L1674.9,297.5z M1597.8,201.3v37.2
			h23c12.8,0,20.3-6.6,20.3-18.9c0-12-7.4-18.4-20.3-18.4H1597.8z M1808.2,297.5h-37.9l-31.5-46.9l-15.6,17.3v29.6h-31.7V176.1h31.7
			V227l45.5-50.9h36.7l-45,50.2L1808.2,297.5z"/>
	</g>
	<linearGradient id="SVGID_1_" gradientUnits="userSpaceOnUse" x1="-41.8334" y1="222.5411" x2="481.5401" y2="222.5411">
		<stop  offset="0" style="stop-color:#F42922"/>
		<stop  offset="0.2942" style="stop-color:#00CDDD"/>
		<stop  offset="0.7997" style="stop-color:#9A1DB1"/>
	</linearGradient>
	<polygon class="st0" points="401.9,263.7 265,126.8 128.2,263.7 182.7,318.2 265,235.9 347.4,318.2 	"/>
</g>
</svg>
