<svg width="24" height="25" viewBox="0 0 24 25" fill="none" xmlns="http://www.w3.org/2000/svg">
<path fill-rule="evenodd" clip-rule="evenodd" d="M0.666626 8.39767L0.769259 8.08977L2.84333 1.86754L3.29918 0.5H4.7407H19.2592H20.7007L21.1566 1.86754L23.2307 8.08977L23.3378 8.4111L23.3331 8.74977L21.3333 8.72222L19.2592 2.5H4.7407L2.66663 8.72222H0.666626V8.39767ZM9.66663 24.5H4.66663C3.00977 24.5 1.66663 23.1569 1.66663 21.5V11.8395C1.50766 11.616 1.37575 11.3904 1.26666 11.1722C0.957501 10.5539 0.812891 9.95978 0.742449 9.53713C0.706438 9.32107 0.687659 9.13664 0.677785 8.9984C0.672824 8.92894 0.670041 8.87016 0.668496 8.82379C0.667722 8.80058 0.667255 8.78037 0.666981 8.7634L0.666701 8.74035L0.666643 8.73066L0.66663 8.72629L0.666627 8.72422C0.666626 8.72321 0.666626 8.72222 2.66663 8.72222C2.66663 8.72222 2.66663 9.54441 3.08929 10.3435C3.38401 10.4811 3.60052 10.7582 3.65388 11.0899C4.11404 11.5189 4.78867 11.8333 5.77774 11.8333C6.55736 11.8333 7.14161 11.638 7.57946 11.3451C8.88884 10.4695 8.88885 8.72222 8.88885 8.72222C8.88885 8.72222 8.88885 10.4695 10.1982 11.3451C10.6361 11.638 11.2203 11.8333 12 11.8333C12.7869 11.8333 13.3747 11.6343 13.8139 11.3369C15.1111 10.4586 15.1111 8.72222 15.1111 8.72222C15.1111 8.72222 15.135 10.4576 16.4253 11.3362C16.8627 11.634 17.4455 11.8333 18.2222 11.8333C19.2138 11.8333 19.8894 11.5084 20.3497 11.0685C20.4073 10.7547 20.6113 10.4921 20.8883 10.3542C21.3219 9.55181 21.3333 8.72222 21.3333 8.72222C23.3331 8.74977 23.3331 8.75075 23.3331 8.75174L23.333 8.75378L23.333 8.7581L23.3328 8.76768L23.3322 8.79049C23.3317 8.8073 23.331 8.82733 23.3299 8.85036C23.3277 8.89638 23.3242 8.95474 23.3184 9.02375C23.3068 9.16112 23.2859 9.3444 23.2477 9.55911C23.1728 9.97925 23.0231 10.5688 22.7122 11.182C22.6077 11.3884 22.4825 11.6016 22.3333 11.8137V21.5C22.3333 23.1569 20.9901 24.5 19.3333 24.5H14.3333H9.66663ZM10.6666 22.5H13.3333L13.3333 16.3333H10.6666V22.5ZM15.3333 22.5V16.3333C15.3333 15.2288 14.4379 14.3333 13.3333 14.3333H10.6666C9.56206 14.3333 8.66663 15.2288 8.66663 16.3333V22.5H4.66663C4.11434 22.5 3.66663 22.0523 3.66663 21.5V13.4364C4.29331 13.6965 5.00011 13.8333 5.77774 13.8333C6.90548 13.8333 7.88426 13.5457 8.68575 13.0113C8.75569 12.9647 8.82336 12.9168 8.88884 12.8678C8.95433 12.9168 9.02201 12.9647 9.09195 13.0113C9.89344 13.5457 10.8722 13.8333 12 13.8333C13.1277 13.8333 14.1065 13.5457 14.908 13.0113C14.9812 12.9625 15.052 12.9123 15.1204 12.8608C15.1875 12.9114 15.2569 12.9609 15.3287 13.009C16.1255 13.5426 17.0991 13.8333 18.2222 13.8333C19.0007 13.8333 19.7075 13.6936 20.3333 13.4301V21.5C20.3333 22.0523 19.8856 22.5 19.3333 22.5H15.3333Z" fill="url(#paint0_linear)"/>
<defs>
<linearGradient id="paint0_linear" x1="21.1406" y1="1.45759" x2="-16.592" y2="38.0444" gradientUnits="userSpaceOnUse">
<stop stop-color="#3CC4D7"/>
<stop offset="0.545328" stop-color="#6DF3D3"/>
<stop offset="1" stop-color="#61FEA0"/>
</linearGradient>
</defs>
</svg>
