<svg width="24" height="24" viewBox="0 0 24 24" fill="none" xmlns="http://www.w3.org/2000/svg">
<path d="M1.5 1.5V0.5C0.947715 0.5 0.5 0.947715 0.5 1.5L1.5 1.5ZM9.66667 1.5H10.6667C10.6667 0.947715 10.219 0.5 9.66667 0.5V1.5ZM9.66667 9.66667V10.6667C10.219 10.6667 10.6667 10.219 10.6667 9.66667H9.66667ZM1.5 9.66667H0.5C0.5 10.219 0.947715 10.6667 1.5 10.6667L1.5 9.66667ZM14.3333 1.5V0.5C13.781 0.5 13.3333 0.947715 13.3333 1.5L14.3333 1.5ZM22.5 1.5H23.5C23.5 0.947715 23.0523 0.5 22.5 0.5V1.5ZM22.5 9.66667V10.6667C23.0523 10.6667 23.5 10.219 23.5 9.66667H22.5ZM14.3333 9.66667H13.3333C13.3333 10.219 13.781 10.6667 14.3333 10.6667V9.66667ZM14.3333 14.3333V13.3333C13.781 13.3333 13.3333 13.781 13.3333 14.3333H14.3333ZM22.5 14.3333H23.5C23.5 13.781 23.0523 13.3333 22.5 13.3333V14.3333ZM22.5 22.5V23.5C23.0523 23.5 23.5 23.0523 23.5 22.5H22.5ZM14.3333 22.5H13.3333C13.3333 23.0523 13.781 23.5 14.3333 23.5V22.5ZM1.5 14.3333V13.3333C0.947715 13.3333 0.5 13.781 0.5 14.3333H1.5ZM9.66667 14.3333H10.6667C10.6667 13.781 10.219 13.3333 9.66667 13.3333V14.3333ZM9.66667 22.5V23.5C10.219 23.5 10.6667 23.0523 10.6667 22.5H9.66667ZM1.5 22.5H0.5C0.5 23.0523 0.947715 23.5 1.5 23.5L1.5 22.5ZM1.5 2.5H9.66667V0.5H1.5V2.5ZM8.66667 1.5V9.66667H10.6667V1.5H8.66667ZM9.66667 8.66667H1.5V10.6667H9.66667V8.66667ZM2.5 9.66667V1.5H0.5V9.66667H2.5ZM14.3333 2.5H22.5V0.5H14.3333V2.5ZM21.5 1.5V9.66667H23.5V1.5H21.5ZM22.5 8.66667H14.3333V10.6667H22.5V8.66667ZM15.3333 9.66667V1.5H13.3333V9.66667H15.3333ZM14.3333 15.3333H22.5V13.3333H14.3333V15.3333ZM21.5 14.3333V22.5H23.5V14.3333H21.5ZM22.5 21.5H14.3333V23.5H22.5V21.5ZM15.3333 22.5V14.3333H13.3333V22.5H15.3333ZM1.5 15.3333H9.66667V13.3333H1.5V15.3333ZM8.66667 14.3333V22.5H10.6667V14.3333H8.66667ZM9.66667 21.5H1.5V23.5H9.66667V21.5ZM2.5 22.5V14.3333H0.5V22.5H2.5Z" fill="black"/>
<path d="M1.5 1.5V0.5C0.947715 0.5 0.5 0.947715 0.5 1.5L1.5 1.5ZM9.66667 1.5H10.6667C10.6667 0.947715 10.219 0.5 9.66667 0.5V1.5ZM9.66667 9.66667V10.6667C10.219 10.6667 10.6667 10.219 10.6667 9.66667H9.66667ZM1.5 9.66667H0.5C0.5 10.219 0.947715 10.6667 1.5 10.6667L1.5 9.66667ZM14.3333 1.5V0.5C13.781 0.5 13.3333 0.947715 13.3333 1.5L14.3333 1.5ZM22.5 1.5H23.5C23.5 0.947715 23.0523 0.5 22.5 0.5V1.5ZM22.5 9.66667V10.6667C23.0523 10.6667 23.5 10.219 23.5 9.66667H22.5ZM14.3333 9.66667H13.3333C13.3333 10.219 13.781 10.6667 14.3333 10.6667V9.66667ZM14.3333 14.3333V13.3333C13.781 13.3333 13.3333 13.781 13.3333 14.3333H14.3333ZM22.5 14.3333H23.5C23.5 13.781 23.0523 13.3333 22.5 13.3333V14.3333ZM22.5 22.5V23.5C23.0523 23.5 23.5 23.0523 23.5 22.5H22.5ZM14.3333 22.5H13.3333C13.3333 23.0523 13.781 23.5 14.3333 23.5V22.5ZM1.5 14.3333V13.3333C0.947715 13.3333 0.5 13.781 0.5 14.3333H1.5ZM9.66667 14.3333H10.6667C10.6667 13.781 10.219 13.3333 9.66667 13.3333V14.3333ZM9.66667 22.5V23.5C10.219 23.5 10.6667 23.0523 10.6667 22.5H9.66667ZM1.5 22.5H0.5C0.5 23.0523 0.947715 23.5 1.5 23.5L1.5 22.5ZM1.5 2.5H9.66667V0.5H1.5V2.5ZM8.66667 1.5V9.66667H10.6667V1.5H8.66667ZM9.66667 8.66667H1.5V10.6667H9.66667V8.66667ZM2.5 9.66667V1.5H0.5V9.66667H2.5ZM14.3333 2.5H22.5V0.5H14.3333V2.5ZM21.5 1.5V9.66667H23.5V1.5H21.5ZM22.5 8.66667H14.3333V10.6667H22.5V8.66667ZM15.3333 9.66667V1.5H13.3333V9.66667H15.3333ZM14.3333 15.3333H22.5V13.3333H14.3333V15.3333ZM21.5 14.3333V22.5H23.5V14.3333H21.5ZM22.5 21.5H14.3333V23.5H22.5V21.5ZM15.3333 22.5V14.3333H13.3333V22.5H15.3333ZM1.5 15.3333H9.66667V13.3333H1.5V15.3333ZM8.66667 14.3333V22.5H10.6667V14.3333H8.66667ZM9.66667 21.5H1.5V23.5H9.66667V21.5ZM2.5 22.5V14.3333H0.5V22.5H2.5Z" fill="url(#paint0_linear_3350_3485)"/>
<defs>
<linearGradient id="paint0_linear_3350_3485" x1="22.4522" y1="-2.94181" x2="-10.0136" y2="34.7743" gradientUnits="userSpaceOnUse">
<stop stop-color="#3CC4D7"/>
<stop offset="0.545328" stop-color="#6DF3D3"/>
<stop offset="1" stop-color="#61FEA0"/>
</linearGradient>
</defs>
</svg>
