<svg width="26" height="18" viewBox="0 0 26 18" fill="none" xmlns="http://www.w3.org/2000/svg">
<path fill-rule="evenodd" clip-rule="evenodd" d="M0.604492 3.41666C0.604492 1.7598 1.94764 0.416656 3.60449 0.416656H22.6299C24.2867 0.416656 25.6299 1.7598 25.6299 3.41666V15.2187C25.6299 16.3233 24.7344 17.2187 23.6299 17.2187H18.7282C17.9104 17.2187 17.175 16.7208 16.8713 15.9615L15.7295 13.107H10.5049L9.36309 15.9615C9.05937 16.7208 8.32395 17.2187 7.50614 17.2187H2.60449C1.49993 17.2187 0.604492 16.3233 0.604492 15.2187V3.41666ZM3.60449 2.41666C3.05221 2.41666 2.60449 2.86437 2.60449 3.41666V15.2187H7.50614L8.64792 12.3642C8.95165 11.6049 9.68707 11.107 10.5049 11.107H15.7295C16.5473 11.107 17.2827 11.6049 17.5864 12.3642L18.7282 15.2187H23.6299V3.41666C23.6299 2.86437 23.1822 2.41666 22.6299 2.41666H3.60449ZM20.4726 9.12308C20.4726 9.59497 20.0901 9.97752 19.6182 9.97752C19.1463 9.97752 18.7638 9.59497 18.7638 9.12308C18.7638 8.65119 19.1463 8.26864 19.6182 8.26864C20.0901 8.26864 20.4726 8.65119 20.4726 9.12308ZM19.6182 6.55977C20.0901 6.55977 20.4726 6.17722 20.4726 5.70533C20.4726 5.23343 20.0901 4.85089 19.6182 4.85089C19.1463 4.85089 18.7638 5.23343 18.7638 5.70533C18.7638 6.17722 19.1463 6.55977 19.6182 6.55977ZM18.6933 7.42755C18.6933 7.89945 18.3107 8.28199 17.8388 8.28199C17.3669 8.28199 16.9844 7.89945 16.9844 7.42755C16.9844 6.95566 17.3669 6.57312 17.8388 6.57312C18.3107 6.57312 18.6933 6.95566 18.6933 7.42755ZM21.2566 8.28199C21.7285 8.28199 22.111 7.89945 22.111 7.42755C22.111 6.95566 21.7285 6.57312 21.2566 6.57312C20.7847 6.57312 20.4021 6.95566 20.4021 7.42755C20.4021 7.89945 20.7847 8.28199 21.2566 8.28199ZM3.89374 7.17306C3.89374 6.62077 4.34146 6.17306 4.89374 6.17306H6.3609V4.70591C6.3609 4.15363 6.80861 3.70591 7.3609 3.70591C7.91318 3.70591 8.3609 4.15363 8.3609 4.70591V6.17306H9.82775C10.38 6.17306 10.8278 6.62077 10.8278 7.17306C10.8278 7.72534 10.38 8.17306 9.82775 8.17306H8.3609V9.63992C8.3609 10.1922 7.91318 10.6399 7.3609 10.6399C6.80861 10.6399 6.3609 10.1922 6.3609 9.63992V8.17306H4.89374C4.34146 8.17306 3.89374 7.72534 3.89374 7.17306Z" fill="url(#paint0_linear)"/>
<defs>
<linearGradient id="paint0_linear" x1="33.9717" y1="4.61717" x2="-12.8217" y2="28.2852" gradientUnits="userSpaceOnUse">
<stop stop-color="#3CC4D7"/>
<stop offset="0.545328" stop-color="#6DF3D3"/>
<stop offset="1" stop-color="#61FEA0"/>
</linearGradient>
</defs>
</svg>
