<svg width="28" height="28" viewBox="0 0 28 28" fill="none" xmlns="http://www.w3.org/2000/svg">
<path fill-rule="evenodd" clip-rule="evenodd" d="M12.7273 1.92425C13.5122 1.45998 14.4877 1.45998 15.2727 1.92425L17.1002 3.00514C17.1718 3.04753 17.253 3.07135 17.3362 3.07444L19.4579 3.15316C20.3693 3.18697 21.1899 3.71436 21.5993 4.52931L22.5523 6.42663C22.5897 6.50104 22.645 6.56494 22.7133 6.61252L24.4557 7.82586C25.2041 8.34702 25.6094 9.23435 25.5131 10.1412L25.2891 12.2526C25.2803 12.3354 25.2923 12.4191 25.3241 12.4961L26.1339 14.4588C26.4817 15.3018 26.3429 16.2674 25.7717 16.9783L24.4417 18.6334C24.3895 18.6983 24.3544 18.7752 24.3395 18.8571L23.9596 20.9461C23.7965 21.8433 23.1577 22.5806 22.2927 22.8698L20.2791 23.5431C20.2001 23.5695 20.129 23.6152 20.0722 23.676L18.6232 25.228C18.0009 25.8946 17.0649 26.1694 16.1809 25.9451L14.1229 25.4229C14.0422 25.4024 13.9577 25.4024 13.877 25.4229L11.819 25.9451C10.935 26.1694 9.99904 25.8946 9.37668 25.228L7.92773 23.676C7.87091 23.6152 7.79978 23.5695 7.72081 23.5431L5.70717 22.8698C4.84226 22.5806 4.20345 21.8433 4.04028 20.9461L3.66041 18.8571C3.64551 18.7752 3.61039 18.6983 3.55823 18.6334L2.22826 16.9783C1.657 16.2674 1.51818 15.3018 1.86601 14.4588L2.67582 12.4961C2.70758 12.4191 2.71961 12.3354 2.71082 12.2526L2.48678 10.1412C2.39055 9.23435 2.79578 8.34701 3.54418 7.82586L5.28657 6.61252C5.3549 6.56494 5.41026 6.50104 5.44764 6.42663L6.40066 4.52931C6.81 3.71436 7.63063 3.18697 8.54198 3.15316L10.6638 3.07444C10.747 3.07135 10.8281 3.04753 10.8998 3.00514L12.7273 1.92425ZM14.2545 3.64569C14.0975 3.55284 13.9024 3.55284 13.7454 3.64569L11.9179 4.72658C11.5596 4.93853 11.154 5.05763 10.7379 5.07307L8.61613 5.15178C8.43386 5.15855 8.26974 5.26402 8.18787 5.42701L7.23485 7.32434C7.04798 7.69638 6.77114 8.01586 6.42948 8.25378L4.6871 9.46712C4.53742 9.57135 4.45637 9.74882 4.47562 9.93019L4.69966 12.0416C4.74359 12.4556 4.68343 12.874 4.52464 13.2589L3.71483 15.2216C3.64526 15.3902 3.67303 15.5833 3.78728 15.7255L5.11725 17.3806C5.37804 17.7051 5.55365 18.0897 5.62814 18.4993L6.00801 20.5882C6.04065 20.7677 6.16841 20.9151 6.34139 20.973L8.35503 21.6463C8.74988 21.7783 9.10551 22.0069 9.38963 22.3112L10.8386 23.8632C10.9631 23.9965 11.1503 24.0514 11.327 24.0066L13.385 23.4843C13.7886 23.3819 14.2113 23.3819 14.6149 23.4843L16.6729 24.0066C16.8497 24.0514 17.0369 23.9965 17.1613 23.8632L18.6103 22.3112C18.8944 22.0069 19.25 21.7783 19.6449 21.6463L21.6585 20.973C21.8315 20.9151 21.9593 20.7677 21.9919 20.5882L22.3718 18.4993C22.4463 18.0897 22.6219 17.7051 22.8827 17.3806L24.2126 15.7255C24.3269 15.5833 24.3547 15.3902 24.2851 15.2216L23.4753 13.2589C23.3165 12.874 23.2563 12.4556 23.3003 12.0416L23.5243 9.93019C23.5435 9.74882 23.4625 9.57135 23.3128 9.46712L21.5704 8.25378C21.2288 8.01586 20.9519 7.69638 20.7651 7.32434L19.812 5.42701C19.7302 5.26402 19.5661 5.15855 19.3838 5.15178L17.262 5.07307C16.846 5.05763 16.4404 4.93853 16.082 4.72658L14.2545 3.64569ZM16.0903 12.7947C15.6366 13.0107 15.0937 12.8181 14.8777 12.3645C14.6617 11.9108 14.8543 11.3679 15.308 11.1519C15.7616 10.9359 16.3045 11.1285 16.5205 11.5821C16.7365 12.0358 16.5439 12.5787 16.0903 12.7947ZM13.9253 10.0068L16.9728 9.9884L18.0442 12.8414L14.4114 18.12L10.2926 15.2854L13.9253 10.0068ZM18.7226 8.95896C18.5017 8.37075 17.9376 7.98254 17.3093 7.98633L13.6523 8.00837C13.1619 8.01133 12.7038 8.25391 12.4257 8.65797L8.36158 14.5634C7.89192 15.2459 8.06441 16.1798 8.74685 16.6495L13.6895 20.051C14.3719 20.5207 15.3059 20.3482 15.7755 19.6657L19.8397 13.7603C20.1177 13.3562 20.1807 12.8417 20.0083 12.3825L18.7226 8.95896Z" fill="black"/>
<path fill-rule="evenodd" clip-rule="evenodd" d="M12.7273 1.92425C13.5122 1.45998 14.4877 1.45998 15.2727 1.92425L17.1002 3.00514C17.1718 3.04753 17.253 3.07135 17.3362 3.07444L19.4579 3.15316C20.3693 3.18697 21.1899 3.71436 21.5993 4.52931L22.5523 6.42663C22.5897 6.50104 22.645 6.56494 22.7133 6.61252L24.4557 7.82586C25.2041 8.34702 25.6094 9.23435 25.5131 10.1412L25.2891 12.2526C25.2803 12.3354 25.2923 12.4191 25.3241 12.4961L26.1339 14.4588C26.4817 15.3018 26.3429 16.2674 25.7717 16.9783L24.4417 18.6334C24.3895 18.6983 24.3544 18.7752 24.3395 18.8571L23.9596 20.9461C23.7965 21.8433 23.1577 22.5806 22.2927 22.8698L20.2791 23.5431C20.2001 23.5695 20.129 23.6152 20.0722 23.676L18.6232 25.228C18.0009 25.8946 17.0649 26.1694 16.1809 25.9451L14.1229 25.4229C14.0422 25.4024 13.9577 25.4024 13.877 25.4229L11.819 25.9451C10.935 26.1694 9.99904 25.8946 9.37668 25.228L7.92773 23.676C7.87091 23.6152 7.79978 23.5695 7.72081 23.5431L5.70717 22.8698C4.84226 22.5806 4.20345 21.8433 4.04028 20.9461L3.66041 18.8571C3.64551 18.7752 3.61039 18.6983 3.55823 18.6334L2.22826 16.9783C1.657 16.2674 1.51818 15.3018 1.86601 14.4588L2.67582 12.4961C2.70758 12.4191 2.71961 12.3354 2.71082 12.2526L2.48678 10.1412C2.39055 9.23435 2.79578 8.34701 3.54418 7.82586L5.28657 6.61252C5.3549 6.56494 5.41026 6.50104 5.44764 6.42663L6.40066 4.52931C6.81 3.71436 7.63063 3.18697 8.54198 3.15316L10.6638 3.07444C10.747 3.07135 10.8281 3.04753 10.8998 3.00514L12.7273 1.92425ZM14.2545 3.64569C14.0975 3.55284 13.9024 3.55284 13.7454 3.64569L11.9179 4.72658C11.5596 4.93853 11.154 5.05763 10.7379 5.07307L8.61613 5.15178C8.43386 5.15855 8.26974 5.26402 8.18787 5.42701L7.23485 7.32434C7.04798 7.69638 6.77114 8.01586 6.42948 8.25378L4.6871 9.46712C4.53742 9.57135 4.45637 9.74882 4.47562 9.93019L4.69966 12.0416C4.74359 12.4556 4.68343 12.874 4.52464 13.2589L3.71483 15.2216C3.64526 15.3902 3.67303 15.5833 3.78728 15.7255L5.11725 17.3806C5.37804 17.7051 5.55365 18.0897 5.62814 18.4993L6.00801 20.5882C6.04065 20.7677 6.16841 20.9151 6.34139 20.973L8.35503 21.6463C8.74988 21.7783 9.10551 22.0069 9.38963 22.3112L10.8386 23.8632C10.9631 23.9965 11.1503 24.0514 11.327 24.0066L13.385 23.4843C13.7886 23.3819 14.2113 23.3819 14.6149 23.4843L16.6729 24.0066C16.8497 24.0514 17.0369 23.9965 17.1613 23.8632L18.6103 22.3112C18.8944 22.0069 19.25 21.7783 19.6449 21.6463L21.6585 20.973C21.8315 20.9151 21.9593 20.7677 21.9919 20.5882L22.3718 18.4993C22.4463 18.0897 22.6219 17.7051 22.8827 17.3806L24.2126 15.7255C24.3269 15.5833 24.3547 15.3902 24.2851 15.2216L23.4753 13.2589C23.3165 12.874 23.2563 12.4556 23.3003 12.0416L23.5243 9.93019C23.5435 9.74882 23.4625 9.57135 23.3128 9.46712L21.5704 8.25378C21.2288 8.01586 20.9519 7.69638 20.7651 7.32434L19.812 5.42701C19.7302 5.26402 19.5661 5.15855 19.3838 5.15178L17.262 5.07307C16.846 5.05763 16.4404 4.93853 16.082 4.72658L14.2545 3.64569ZM16.0903 12.7947C15.6366 13.0107 15.0937 12.8181 14.8777 12.3645C14.6617 11.9108 14.8543 11.3679 15.308 11.1519C15.7616 10.9359 16.3045 11.1285 16.5205 11.5821C16.7365 12.0358 16.5439 12.5787 16.0903 12.7947ZM13.9253 10.0068L16.9728 9.9884L18.0442 12.8414L14.4114 18.12L10.2926 15.2854L13.9253 10.0068ZM18.7226 8.95896C18.5017 8.37075 17.9376 7.98254 17.3093 7.98633L13.6523 8.00837C13.1619 8.01133 12.7038 8.25391 12.4257 8.65797L8.36158 14.5634C7.89192 15.2459 8.06441 16.1798 8.74685 16.6495L13.6895 20.051C14.3719 20.5207 15.3059 20.3482 15.7755 19.6657L19.8397 13.7603C20.1177 13.3562 20.1807 12.8417 20.0083 12.3825L18.7226 8.95896Z" fill="url(#paint0_linear)"/>
<defs>
<linearGradient id="paint0_linear" x1="26.2668" y1="-3.59463" x2="-11.4794" y2="40.6144" gradientUnits="userSpaceOnUse">
<stop stop-color="#3CC4D7"/>
<stop offset="0.545328" stop-color="#6DF3D3"/>
<stop offset="1" stop-color="#61FEA0"/>
</linearGradient>
</defs>
</svg>
