<svg width="1189" height="257" viewBox="0 0 1189 257" fill="none" xmlns="http://www.w3.org/2000/svg">
<path d="M75.7462 166.045V104.664H119.104V68.0971H75.7462V30.224L33.9552 43.2837V68.0971H2.61194V104.664H33.9552V180.41C33.9552 194.776 41.791 203.134 56.1567 202.612L124.328 200V163.433L75.7462 166.045ZM132.25 200H174.041V103.097L241.168 104.664V68.0971L154.712 66.0075C140.347 65.7463 132.25 73.5822 132.25 87.9478V200ZM315.426 166.045C295.314 166.045 288.262 156.903 288.262 132.873V68.0971H246.471V139.403C246.471 180.149 266.844 202.612 300.538 202.612C328.747 202.612 345.202 184.067 350.426 160.56H360.874L353.038 184.067V200H394.829V68.0971H353.038V116.94C353.038 154.03 338.15 166.045 315.426 166.045ZM399.974 132.351C399.974 169.702 423.22 202.612 473.891 202.612C519.6 202.612 541.279 172.575 543.891 153.507H502.1C499.488 163.433 488.518 168.657 473.891 168.657C450.123 168.657 439.153 157.948 439.153 142.799H539.19V129.739C539.19 89.7762 510.459 65.4851 469.451 65.4851C428.444 65.4851 399.974 90.5598 399.974 132.351ZM439.153 119.291C439.153 109.366 446.205 99.4404 469.451 99.4404C492.697 99.4404 500.011 109.366 500.011 119.291H439.153ZM549.068 68.0971V249.627H590.859V191.903L583.024 168.396H593.471C600.262 185.896 612.8 202.612 645.449 202.612C683.583 202.612 702.65 171.53 702.65 134.179C702.65 96.8284 683.583 65.4851 645.449 65.4851C612.8 65.4851 600.262 82.2016 593.471 99.7015H583.024L590.859 76.1941V68.0971H549.068ZM590.859 134.179C590.859 111.716 603.397 102.052 625.859 102.052C648.322 102.052 660.859 111.716 660.859 134.179C660.859 156.642 648.322 166.045 625.859 166.045C603.397 166.045 590.859 156.642 590.859 134.179ZM789.942 102.052C810.054 102.052 817.106 111.194 817.106 135.224V200H858.897V128.694C858.897 87.9478 838.524 65.4851 804.83 65.4851C776.621 65.4851 760.166 84.0299 754.942 107.537H744.494L752.33 84.0299V68.0971H710.539V200H752.33V151.157C752.33 114.067 767.218 102.052 789.942 102.052ZM864.174 200H979.1V163.433H942.532V28.1344C942.532 13.5076 934.435 5.67175 919.809 6.19413L869.398 8.0225V44.5896L900.741 43.0225V163.433H864.174V200Z" fill="white"/>
<path d="M1136 60.6143H1102.72V108.682L1072.93 78.695L1049.72 102.068L1119.36 172.185L1189 102.068L1165.79 78.695L1136 108.682V60.6143Z" fill="white"/>
<path d="M1136 204.283H1102.72V156.215L1072.93 186.202L1049.72 162.83L1119.36 92.7122L1189 162.83L1165.79 186.202L1136 156.215V204.283Z" fill="#3BDA67"/>
</svg>
