<svg width="25" height="21" viewBox="0 0 25 21" fill="none" xmlns="http://www.w3.org/2000/svg">
<path d="M23 3.81818H3C2.73478 3.81818 2.48043 3.71761 2.29289 3.5386C2.10536 3.35959 2 3.1168 2 2.86364C2 2.61048 2.10536 2.36768 2.29289 2.18867C2.48043 2.00966 2.73478 1.90909 3 1.90909H20C20.2652 1.90909 20.5196 1.80852 20.7071 1.62951C20.8946 1.4505 21 1.20771 21 0.954545C21 0.701384 20.8946 0.458592 20.7071 0.27958C20.5196 0.100568 20.2652 0 20 0H3C2.20536 0.00314089 1.44421 0.305853 0.882315 0.84221C0.320418 1.37857 0.00329046 2.10512 0 2.86364V18.1364C0.00329046 18.8949 0.320418 19.6214 0.882315 20.1578C1.44421 20.6941 2.20536 20.9969 3 21H23C23.5304 21 24.0391 20.7989 24.4142 20.4408C24.7893 20.0828 25 19.5972 25 19.0909V5.72727C25 5.22095 24.7893 4.73537 24.4142 4.37734C24.0391 4.01932 23.5304 3.81818 23 3.81818ZM18.5 13.8409C18.2033 13.8409 17.9133 13.7569 17.6666 13.5996C17.42 13.4423 17.2277 13.2187 17.1142 12.957C17.0007 12.6954 16.9709 12.4075 17.0288 12.1298C17.0867 11.852 17.2296 11.5969 17.4393 11.3966C17.6491 11.1964 17.9164 11.06 18.2074 11.0048C18.4983 10.9495 18.7999 10.9779 19.074 11.0863C19.3481 11.1946 19.5824 11.3782 19.7472 11.6136C19.912 11.8491 20 12.1259 20 12.4091C20 12.7888 19.842 13.153 19.5607 13.4215C19.2794 13.6901 18.8978 13.8409 18.5 13.8409Z" fill="#9393A4"/>
</svg>
